<svg id="visual" viewBox="0 0 900 600" width="900" height="600" xmlns="http://www.w3.org/2000/svg" xmlns:xlink="http://www.w3.org/1999/xlink" version="1.1"><path d="M0 55L13.7 57C27.3 59 54.7 63 82 75C109.3 87 136.7 107 163.8 112C191 117 218 107 245.2 105C272.3 103 299.7 109 327 104C354.3 99 381.7 83 409 85C436.3 87 463.7 107 491 106C518.3 105 545.7 83 573 69C600.3 55 627.7 49 654.8 51C682 53 709 63 736.2 65C763.3 67 790.7 61 818 68C845.3 75 872.7 95 886.3 105L900 115L900 0L886.3 0C872.7 0 845.3 0 818 0C790.7 0 763.3 0 736.2 0C709 0 682 0 654.8 0C627.7 0 600.3 0 573 0C545.7 0 518.3 0 491 0C463.7 0 436.3 0 409 0C381.7 0 354.3 0 327 0C299.7 0 272.3 0 245.2 0C218 0 191 0 163.8 0C136.7 0 109.3 0 82 0C54.7 0 27.3 0 13.7 0L0 0Z" fill="#a067ff"></path><path d="M0 157L13.7 159C27.3 161 54.7 165 82 172C109.3 179 136.7 189 163.8 186C191 183 218 167 245.2 161C272.3 155 299.7 159 327 162C354.3 165 381.7 167 409 171C436.3 175 463.7 181 491 180C518.3 179 545.7 171 573 163C600.3 155 627.7 147 654.8 145C682 143 709 147 736.2 145C763.3 143 790.7 135 818 142C845.3 149 872.7 171 886.3 182L900 193L900 113L886.3 103C872.7 93 845.3 73 818 66C790.7 59 763.3 65 736.2 63C709 61 682 51 654.8 49C627.7 47 600.3 53 573 67C545.7 81 518.3 103 491 104C463.7 105 436.3 85 409 83C381.7 81 354.3 97 327 102C299.7 107 272.3 101 245.2 103C218 105 191 115 163.8 110C136.7 105 109.3 85 82 73C54.7 61 27.3 57 13.7 55L0 53Z" fill="#8642ff"></path><path d="M0 421L13.7 399C27.3 377 54.7 333 82 326C109.3 319 136.7 349 163.8 367C191 385 218 391 245.2 395C272.3 399 299.7 401 327 378C354.3 355 381.7 307 409 296C436.3 285 463.7 311 491 323C518.3 335 545.7 333 573 326C600.3 319 627.7 307 654.8 304C682 301 709 307 736.2 313C763.3 319 790.7 325 818 349C845.3 373 872.7 415 886.3 436L900 457L900 191L886.3 180C872.7 169 845.3 147 818 140C790.7 133 763.3 141 736.2 143C709 145 682 141 654.8 143C627.7 145 600.3 153 573 161C545.7 169 518.3 177 491 178C463.7 179 436.3 173 409 169C381.7 165 354.3 163 327 160C299.7 157 272.3 153 245.2 159C218 165 191 181 163.8 184C136.7 187 109.3 177 82 170C54.7 163 27.3 159 13.7 157L0 155Z" fill="#6600ff"></path><path d="M0 517L13.7 519C27.3 521 54.7 525 82 531C109.3 537 136.7 545 163.8 542C191 539 218 525 245.2 519C272.3 513 299.7 515 327 506C354.3 497 381.7 477 409 474C436.3 471 463.7 485 491 491C518.3 497 545.7 495 573 495C600.3 495 627.7 497 654.8 505C682 513 709 527 736.2 521C763.3 515 790.7 489 818 491C845.3 493 872.7 523 886.3 538L900 553L900 455L886.3 434C872.7 413 845.3 371 818 347C790.7 323 763.3 317 736.2 311C709 305 682 299 654.8 302C627.7 305 600.3 317 573 324C545.7 331 518.3 333 491 321C463.7 309 436.3 283 409 294C381.7 305 354.3 353 327 376C299.7 399 272.3 397 245.2 393C218 389 191 383 163.8 365C136.7 347 109.3 317 82 324C54.7 331 27.3 375 13.7 397L0 419Z" fill="#5802dc"></path><path d="M0 601L13.7 601C27.3 601 54.7 601 82 601C109.3 601 136.7 601 163.8 601C191 601 218 601 245.2 601C272.3 601 299.7 601 327 601C354.3 601 381.7 601 409 601C436.3 601 463.7 601 491 601C518.3 601 545.7 601 573 601C600.3 601 627.7 601 654.8 601C682 601 709 601 736.2 601C763.3 601 790.7 601 818 601C845.3 601 872.7 601 886.3 601L900 601L900 551L886.3 536C872.7 521 845.3 491 818 489C790.7 487 763.3 513 736.2 519C709 525 682 511 654.8 503C627.7 495 600.3 493 573 493C545.7 493 518.3 495 491 489C463.7 483 436.3 469 409 472C381.7 475 354.3 495 327 504C299.7 513 272.3 511 245.2 517C218 523 191 537 163.8 540C136.7 543 109.3 535 82 529C54.7 523 27.3 519 13.7 517L0 515Z" fill="#4b03ba"></path></svg>