<!--?xml version="1.0" standalone="no"?-->
              <svg id="sw-js-blob-svg" viewBox="0 0 100 100" xmlns="http://www.w3.org/2000/svg" version="1.1">
                    <defs> 
                        <linearGradient id="sw-gradient" x1="0" x2="1" y1="1" y2="0">
                            <stop id="stop1" stop-color="rgba(248, 117, 55, 1)" offset="0%"></stop>
                            <stop id="stop2" stop-color="rgba(251, 168, 31, 1)" offset="100%"></stop>
                        </linearGradient>
                    </defs>
                <path fill="url(#sw-gradient)" d="M17.1,-26.5C21.7,-26.9,24.9,-21.5,28.2,-16.2C31.4,-10.8,34.8,-5.4,37.2,1.4C39.6,8.2,41,16.3,36.7,19.9C32.4,23.5,22.5,22.6,15.4,25.9C8.4,29.2,4.2,36.8,-1.8,39.8C-7.7,42.9,-15.5,41.5,-19.8,36.7C-24.2,31.8,-25.1,23.4,-23.4,16.7C-21.7,10,-17.4,5,-17,0.2C-16.7,-4.6,-20.4,-9.3,-19.6,-11.7C-18.9,-14.2,-13.7,-14.4,-9.6,-14.4C-5.6,-14.5,-2.8,-14.3,1.7,-17.2C6.2,-20.1,12.4,-26.2,17.1,-26.5Z" width="100%" height="100%" transform="translate(50 50)" stroke-width="0" style="transition: all 0.3s ease 0s;" stroke="url(#sw-gradient)"></path>
              </svg>