                <svg id="visual" viewBox="0 0 900 600" width="900" height="600" xmlns="http://www.w3.org/2000/svg" xmlns:xlink="http://www.w3.org/1999/xlink" version="1.1"><g transform="translate(432.2127679102208 309.0569403905032)">
                    <path id="blob-init" d="M188 -165C236 -140 262 -70 245.2 -16.9C228.3 36.3 168.6 72.6 120.6 99.1C72.6 125.6 36.3 142.3 -10.4 152.7C-57 163 -114.1 167.1 -151.1 140.6C-188.1 114.1 -205 57 -211.9 -6.8C-218.7 -70.7 -215.4 -141.4 -178.4 -166.4C-141.4 -191.4 -70.7 -170.7 -0.4 -170.4C70 -170 140 -190 188 -165" fill="#BB004B"></path></g>
                <g transform="translate(503.46869390926935 319.05690433423285)" style="visibility: hidden">
                    <path id="blob-final" d="M96.2 -116.2C121.7 -70.7 137.4 -35.4 147 9.7C156.7 54.7 160.4 109.4 134.9 144.9C109.4 180.4 54.7 196.7 -1.3 198C-57.3 199.3 -114.6 185.6 -164.6 150.1C-214.6 114.6 -257.3 57.3 -261 -3.8C-264.8 -64.8 -229.6 -129.6 -179.6 -175.1C-129.6 -220.6 -64.8 -246.8 -14.7 -232.1C35.4 -217.4 70.7 -161.7 96.2 -116.2" fill="#BB004B"></path></g>
                </svg>