<!--?xml version="1.0" standalone="no"?-->
              <svg id="sw-js-blob-svg" viewBox="0 0 100 100" xmlns="http://www.w3.org/2000/svg" version="1.1">
                    <defs> 
                        <linearGradient id="sw-gradient" x1="0" x2="1" y1="1" y2="0">
                            <stop id="stop1" stop-color="rgba(248, 117, 55, 1)" offset="0%"></stop>
                            <stop id="stop2" stop-color="rgba(251, 168, 31, 1)" offset="100%"></stop>
                        </linearGradient>
                    </defs>
                <path fill="url(#sw-gradient)" d="M19.5,-33.9C26.1,-29.9,33.1,-26.5,36.7,-20.9C40.3,-15.4,40.6,-7.7,39.9,-0.4C39.2,6.9,37.5,13.8,34.8,20.9C32.1,28.1,28.5,35.6,22.5,39.8C16.6,44,8.3,44.9,1,43.1C-6.3,41.4,-12.5,37,-18.8,32.9C-25,28.9,-31.2,25.3,-36.3,19.8C-41.4,14.4,-45.4,7.2,-45.7,-0.1C-45.9,-7.5,-42.4,-15,-38.2,-21.9C-34,-28.8,-29,-35.2,-22.5,-39.3C-16,-43.4,-8,-45.2,-0.8,-43.9C6.4,-42.5,12.8,-37.9,19.5,-33.9Z" width="100%" height="100%" transform="translate(50 50)" stroke-width="0" style="transition: all 0.3s ease 0s;" stroke="url(#sw-gradient)"></path>
              </svg>